P3
2
2
255
64 0 64
16 16 64
0 64 16
0 0 0